The Last Legion 2007 HDDVDRip H264 AAC-Rx(Phoenix-RG).mp4
      Format : MPEG-4
      Format profile : Base Media
      Codec ID : isom
      File size : 1.65 GiB
      Duration : 1h 41mn
      Overall bit rate : 2 325 Kbps
      
   Video #1
      Format : AVC
      Format/Info : Advanced Video Codec
      Format profile : High@L4.1
      Format settings, CABAC : Yes
      Format settings, ReFrames : 8 frames
      Codec ID : avc1
      Codec ID/Info : Advanced Video Coding
      Duration : 1h 41mn
      Bit rate mode : Variable
      Bit rate : 2 000 Kbps
      Maximum bit rate : 9 801 Kbps
      Width : 1 280 pixels
      Height : 536 pixels
      Display aspect ratio : 2.35
      Frame rate mode : Constant
      Frame rate : 23.976 fps
      Resolution : 24 bits
      Colorimetry : 4:2:0
      Scan type : Progressive
      Bits/(Pixel*Frame) : 0.122
      Stream size : 1.42 GiB (86%)
      Writing library : x264 core 98 r1649 c54c47d
      
   Audio #2
      Format : AAC
      Format/Info : Advanced Audio Codec
      Format version : Version 4
      Format profile : LC
      Format settings, SBR : No
      Codec ID : 40
      Duration : 1h 41mn
      Bit rate mode : Variable
      Bit rate : 321 Kbps
      Maximum bit rate : 444 Kbps
      Channel(s) : 6 channels
      Channel positions : Front: L C R, Rear: L R, LFE
      Sampling rate : 48.0 KHz
      Resolution : 16 bits
      Stream size : 234 MiB (14%)


SCREEN:
 
http://img806.imageshack.us/img806/2204/vlcsnap91900.jpg
 
http://img265.imageshack.us/img265/8823/vlcsnap90066.jpg
 
http://img265.imageshack.us/img265/4511/vlcsnap91202.jpg